<svg id="filanew" xmlns="http://www.w3.org/2000/svg" width="312.158" height="102.829" viewBox="0 0 312.158 102.829">
  <path id="Trazado_1" data-name="Trazado 1" d="M100.46,89.078l-.307-75.358A13.515,13.515,0,0,1,113.628,0H115.1a13.718,13.718,0,0,1,13.719,13.72l.3,75.358A13.714,13.714,0,0,1,115.4,102.793h-1.566A13.426,13.426,0,0,1,100.46,89.078Z" fill="#0b1f3f"/>
  <path id="Trazado_2" data-name="Trazado 2" d="M273.582,8.911l30.468,49.6c6.59,10.721,8.108,13.506,8.108,21.4,0,12.455-11.288,21.994-21.28,21.994H249.7c-7.494,0-13.563-5.2-13.563-12.7v-.863A13.557,13.557,0,0,1,249.7,74.775l25.238-.01c1.588,0,2.561-.209,2.992-1.2.475-1.088.327-1.713-.416-2.931L259.54,41.8c-.281-.484-.629-1.15-1.186-1.15-.518,0-.97.666-1.213,1.187L229.686,88.954c-4.278,7.476-9.308,12.938-16.8,12.938h-52.8c-9.992,0-20.069-9.869-20.069-20.063V13.667A13.568,13.568,0,0,1,153.587.1h1.732a13.56,13.56,0,0,1,13.559,13.563V69.348a3.576,3.576,0,0,0,3.7,3.688H198.8c4.6,0,7.375-1.66,9.78-5.668L243.867,8.91a17.037,17.037,0,0,1,15.1-8.551C265.124.359,270,3.144,273.582,8.911Z" fill="#0b1f3f"/>
  <path id="Trazado_3" data-name="Trazado 3" d="M32.55,66.6a3.69,3.69,0,0,0-3.69,3.7l0,18.967a13.566,13.566,0,0,1-13.563,13.563H13.564A13.567,13.567,0,0,1,0,89.266l.006-34.5A15.924,15.924,0,0,1,16.155,38.62h55.1A13.56,13.56,0,0,1,84.82,52.178v.864A13.565,13.565,0,0,1,71.257,66.6Z" fill="#0b1f3f"/>
  <path id="Trazado_4" data-name="Trazado 4" d="M13.72,1.958H77.913a13.51,13.51,0,0,1,13.72,13.469v.859A13.717,13.717,0,0,1,77.913,30H13.72A13.718,13.718,0,0,1,0,16.286v-.958A13.425,13.425,0,0,1,13.72,1.958Z" fill="#d5122b"/>
</svg>
